<svg width="53" height="52" fill="none" xmlns="http://www.w3.org/2000/svg"><g clip-path="url(#a)"><path d="M4.003 14A2.002 2.002 0 1 0 0 14.001 2.002 2.002 0 0 0 4.003 14Zm0-12A2.001 2.001 0 1 0 0 2.001 2.001 2.001 0 0 0 4.003 2Zm24.014 36a2 2 0 1 0-4 0 2 2 0 0 0 4 0Zm0-12a2 2 0 1 0-4 0 2 2 0 0 0 4 0Zm0-12a2 2 0 1 0-4 0 2 2 0 0 0 4 0Zm0-12a2 2 0 1 0-4 .001 2 2 0 0 0 4-.001ZM16.01 38a2 2 0 1 0-4 0 2 2 0 0 0 4 0Zm0-12a2.001 2.001 0 1 0-4.002.001A2.001 2.001 0 0 0 16.01 26Zm0-12a2 2 0 1 0-4 0 2 2 0 0 0 4 0Zm0-12a2 2 0 1 0-4 0 2 2 0 0 0 4 0Zm24.015 48a2 2 0 1 0-4 0 2 2 0 0 0 4 0Zm12.007 0a2 2 0 1 0-4 0 2 2 0 0 0 4 0ZM40.025 38a2 2 0 1 0-4 0 2 2 0 0 0 4 0Zm12.007 0a2 2 0 1 0-4 0 2 2 0 0 0 4 0ZM40.025 26a2 2 0 1 0-4 0 2 2 0 0 0 4 0Zm12.007 0a2 2 0 1 0-4 0 2 2 0 0 0 4 0ZM40.025 14a2.001 2.001 0 1 0-4.002.001A2.001 2.001 0 0 0 40.025 14Zm12.007 0a2 2 0 1 0-4 0 2 2 0 0 0 4 0ZM40.025 2a2 2 0 1 0-4 0 2 2 0 0 0 4 0Zm12.007 0a2 2 0 1 0-4 .001 2 2 0 0 0 4-.001Z" fill="gray" fill-opacity=".3"/></g><defs><clipPath id="a"><path fill="#fff" d="M0 0h53v52H0z"/></clipPath></defs></svg>