<svg width="53" height="52" viewBox="0 0 53 52" fill="none" xmlns="http://www.w3.org/2000/svg">
<g clip-path="url(#clip0_26_2)">
<path d="M4.003 14C4.00287 13.4692 3.79187 12.9602 3.41642 12.5849C3.04097 12.2096 2.53183 11.9989 2.001 11.999C1.47017 11.9992 0.961133 12.2102 0.585872 12.5856C0.210612 12.9611 -0.000132546 13.4702 6.25436e-08 14.001C6.57235e-05 14.2639 0.0519011 14.5241 0.152547 14.7669C0.253192 15.0097 0.400676 15.2303 0.586579 15.4162C0.962027 15.7914 1.47117 16.0022 2.002 16.002C2.26484 16.002 2.52509 15.9501 2.7679 15.8495C3.01071 15.7488 3.23132 15.6013 3.41713 15.4154C3.60294 15.2295 3.75031 15.0089 3.85084 14.766C3.95136 14.5231 4.00307 14.2629 4.003 14V14ZM4.003 2.00002C4.00287 1.46919 3.79187 0.960156 3.41642 0.584896C3.04097 0.209635 2.53183 -0.00110911 2.001 -0.0009765C1.47017 -0.000843892 0.961133 0.210155 0.585872 0.585603C0.210612 0.961051 -0.000132546 1.47019 6.25436e-08 2.00102C0.000132671 2.53185 0.211132 3.04089 0.586579 3.41615C0.962027 3.79141 1.47117 4.00216 2.002 4.00202C2.53283 4.00189 3.04187 3.79089 3.41713 3.41544C3.79239 3.04 4.00313 2.53085 4.003 2.00002ZM28.017 38C28.0169 37.4696 27.806 36.9609 27.4309 36.586C27.0557 36.211 26.5469 36.0004 26.0165 36.0005C25.4861 36.0007 24.9774 36.2115 24.6024 36.5867C24.2275 36.9618 24.0169 37.4706 24.017 38.001C24.0171 38.2637 24.0689 38.5237 24.1694 38.7663C24.27 39.009 24.4174 39.2294 24.6031 39.4151C24.7889 39.6008 25.0094 39.748 25.2521 39.8485C25.4948 39.9489 25.7549 40.0006 26.0175 40.0005C26.2801 40.0005 26.5402 39.9487 26.7828 39.8481C27.0255 39.7475 27.2459 39.6001 27.4316 39.4144C27.6172 39.2286 27.7645 39.0081 27.865 38.7654C27.9654 38.5228 28.0171 38.2627 28.017 38ZM28.017 26C28.0169 25.4696 27.806 24.9609 27.4309 24.586C27.0557 24.211 26.5469 24.0004 26.0165 24.0005C25.4861 24.0007 24.9774 24.2115 24.6024 24.5867C24.2275 24.9618 24.0169 25.4706 24.017 26.001C24.0171 26.5315 24.228 27.0401 24.6031 27.4151C24.9783 27.7901 25.4871 28.0007 26.0175 28.0005C26.5479 28.0004 27.0566 27.7895 27.4316 27.4144C27.8065 27.0392 28.0171 26.5305 28.017 26V26ZM28.017 14C28.0169 13.4696 27.806 12.9609 27.4309 12.586C27.0557 12.211 26.5469 12.0004 26.0165 12.0005C25.4861 12.0007 24.9774 12.2115 24.6024 12.5867C24.2275 12.9618 24.0169 13.4706 24.017 14.001C24.0171 14.5315 24.228 15.0401 24.6031 15.4151C24.7889 15.6008 25.0094 15.748 25.2521 15.8485C25.4948 15.9489 25.7549 16.0006 26.0175 16.0005C26.2801 16.0005 26.5402 15.9487 26.7828 15.8481C27.0255 15.7475 27.2459 15.6001 27.4316 15.4144C27.6172 15.2286 27.7645 15.0081 27.865 14.7654C27.9654 14.5228 28.0171 14.2627 28.017 14ZM28.017 2.00002C28.0169 1.46959 27.806 0.960935 27.4309 0.585956C27.0557 0.210977 26.5469 0.000390892 26.0165 0.0005235C25.4861 0.000656108 24.9774 0.211497 24.6024 0.586663C24.2275 0.96183 24.0169 1.47059 24.017 2.00102C24.0171 2.53146 24.228 3.04011 24.6031 3.41509C24.9783 3.79007 25.4871 4.00066 26.0175 4.00052C26.5479 4.00039 27.0566 3.78955 27.4316 3.41438C27.8065 3.03922 28.0171 2.53046 28.017 2.00002ZM16.01 38C16.0099 37.4695 15.799 36.9607 15.4237 36.5856C15.0485 36.2105 14.5396 35.9999 14.009 36C13.4784 36.0002 12.9697 36.211 12.5946 36.5863C12.2195 36.9616 12.0089 37.4705 12.009 38.001C12.0091 38.5316 12.22 39.0404 12.5953 39.4154C12.7811 39.6012 13.0017 39.7485 13.2444 39.8489C13.4871 39.9494 13.7473 40.0011 14.01 40.001C14.2727 40.001 14.5328 39.9491 14.7755 39.8486C15.0182 39.748 15.2387 39.6005 15.4244 39.4147C15.6101 39.2289 15.7574 39.0084 15.8579 38.7656C15.9584 38.5229 16.0101 38.2627 16.01 38V38ZM16.01 26C16.0099 25.7373 15.9581 25.4772 15.8575 25.2345C15.7569 24.9918 15.6095 24.7713 15.4237 24.5856C15.2379 24.3999 15.0173 24.2526 14.7746 24.1521C14.5319 24.0516 14.2717 24 14.009 24C13.7463 24.0001 13.4862 24.0519 13.2435 24.1525C13.0008 24.2531 12.7803 24.4005 12.5946 24.5863C12.4089 24.7721 12.2616 24.9927 12.1611 25.2354C12.0606 25.4782 12.0089 25.7383 12.009 26.001C12.0091 26.5316 12.22 27.0404 12.5953 27.4154C12.9705 27.7905 13.4794 28.0012 14.01 28.001C14.5406 28.0009 15.0493 27.79 15.4244 27.4147C15.7995 27.0395 16.0101 26.5306 16.01 26V26ZM16.01 14C16.0099 13.4695 15.799 12.9607 15.4237 12.5856C15.0485 12.2105 14.5396 11.9999 14.009 12C13.4784 12.0002 12.9697 12.2111 12.5946 12.5863C12.2195 12.9616 12.0089 13.4705 12.009 14.001C12.0091 14.2637 12.0609 14.5239 12.1615 14.7665C12.2621 15.0092 12.4095 15.2297 12.5953 15.4154C12.7811 15.6012 13.0017 15.7485 13.2444 15.8489C13.4871 15.9494 13.7473 16.0011 14.01 16.001C14.2727 16.001 14.5328 15.9491 14.7755 15.8486C15.0182 15.748 15.2387 15.6005 15.4244 15.4147C15.6101 15.2289 15.7574 15.0084 15.8579 14.7656C15.9584 14.5229 16.0101 14.2627 16.01 14V14ZM16.01 2.00002C16.0099 1.46946 15.799 0.960676 15.4237 0.585603C15.0485 0.21053 14.5396 -0.000109108 14.009 2.35001e-05C13.4784 0.000156108 12.9697 0.21105 12.5946 0.58631C12.2195 0.96157 12.0089 1.47046 12.009 2.00102C12.0091 2.53159 12.22 3.04037 12.5953 3.41544C12.9705 3.79052 13.4794 4.00116 14.01 4.00102C14.5406 4.00089 15.0493 3.79 15.4244 3.41474C15.7995 3.03948 16.0101 2.53059 16.01 2.00002V2.00002ZM40.025 50C40.0249 49.4695 39.814 48.9607 39.4387 48.5856C39.0635 48.2105 38.5546 47.9999 38.024 48C37.4934 48.0002 36.9847 48.211 36.6096 48.5863C36.2345 48.9616 36.0239 49.4705 36.024 50.001C36.0241 50.5316 36.235 51.0404 36.6103 51.4154C36.7961 51.6012 37.0167 51.7485 37.2594 51.8489C37.5021 51.9494 37.7623 52.0011 38.025 52.001C38.2877 52.001 38.5478 51.9491 38.7905 51.8486C39.0332 51.748 39.2537 51.6005 39.4394 51.4147C39.6251 51.2289 39.7724 51.0084 39.8729 50.7656C39.9734 50.5229 40.0251 50.2627 40.025 50V50ZM52.032 50C52.0319 49.4696 51.821 48.9609 51.4459 48.586C51.0707 48.211 50.5619 48.0004 50.0315 48.0005C49.5011 48.0007 48.9924 48.2115 48.6174 48.5867C48.2425 48.9618 48.0319 49.4706 48.032 50.001C48.0321 50.2637 48.0839 50.5237 48.1844 50.7663C48.285 51.009 48.4324 51.2294 48.6181 51.4151C48.8039 51.6008 49.0244 51.748 49.2671 51.8485C49.5098 51.9489 49.7699 52.0006 50.0325 52.0005C50.2951 52.0005 50.5552 51.9487 50.7978 51.8481C51.0405 51.7475 51.2609 51.6001 51.4466 51.4144C51.6322 51.2286 51.7795 51.0081 51.88 50.7654C51.9804 50.5228 52.0321 50.2627 52.032 50ZM40.025 38C40.0249 37.4695 39.814 36.9607 39.4387 36.5856C39.0635 36.2105 38.5546 35.9999 38.024 36C37.4934 36.0002 36.9847 36.211 36.6096 36.5863C36.2345 36.9616 36.0239 37.4705 36.024 38.001C36.0241 38.5316 36.235 39.0404 36.6103 39.4154C36.7961 39.6012 37.0167 39.7485 37.2594 39.8489C37.5021 39.9494 37.7623 40.0011 38.025 40.001C38.2877 40.001 38.5478 39.9491 38.7905 39.8486C39.0332 39.748 39.2537 39.6005 39.4394 39.4147C39.6251 39.2289 39.7724 39.0084 39.8729 38.7656C39.9734 38.5229 40.0251 38.2627 40.025 38V38ZM52.032 38C52.0319 37.4696 51.821 36.9609 51.4459 36.586C51.0707 36.211 50.5619 36.0004 50.0315 36.0005C49.5011 36.0007 48.9924 36.2115 48.6174 36.5867C48.2425 36.9618 48.0319 37.4706 48.032 38.001C48.0321 38.2637 48.0839 38.5237 48.1844 38.7663C48.285 39.009 48.4324 39.2294 48.6181 39.4151C48.8039 39.6008 49.0244 39.748 49.2671 39.8485C49.5098 39.9489 49.7699 40.0006 50.0325 40.0005C50.2951 40.0005 50.5552 39.9487 50.7978 39.8481C51.0405 39.7475 51.2609 39.6001 51.4466 39.4144C51.6322 39.2286 51.7795 39.0081 51.88 38.7654C51.9804 38.5228 52.0321 38.2627 52.032 38ZM40.025 26C40.0249 25.4695 39.814 24.9607 39.4387 24.5856C39.0635 24.2105 38.5546 23.9999 38.024 24C37.4934 24.0002 36.9847 24.211 36.6096 24.5863C36.2345 24.9616 36.0239 25.4705 36.024 26.001C36.0241 26.2637 36.0759 26.5239 36.1765 26.7665C36.2771 27.0092 36.4245 27.2297 36.6103 27.4154C36.7961 27.6012 37.0167 27.7485 37.2594 27.8489C37.5021 27.9494 37.7623 28.0011 38.025 28.001C38.2877 28.001 38.5478 27.9491 38.7905 27.8486C39.0332 27.748 39.2537 27.6005 39.4394 27.4147C39.6251 27.2289 39.7724 27.0084 39.8729 26.7656C39.9734 26.5229 40.0251 26.2627 40.025 26V26ZM52.032 26C52.0319 25.4696 51.821 24.9609 51.4459 24.586C51.0707 24.211 50.5619 24.0004 50.0315 24.0005C49.5011 24.0007 48.9924 24.2115 48.6174 24.5867C48.2425 24.9618 48.0319 25.4706 48.032 26.001C48.0321 26.5315 48.243 27.0401 48.6181 27.4151C48.9933 27.7901 49.5021 28.0007 50.0325 28.0005C50.5629 28.0004 51.0716 27.7895 51.4466 27.4144C51.8215 27.0392 52.0321 26.5305 52.032 26V26ZM40.025 14C40.0249 13.7373 39.9731 13.4772 39.8725 13.2345C39.7719 12.9918 39.6245 12.7713 39.4387 12.5856C39.2529 12.3999 39.0323 12.2526 38.7896 12.1521C38.5469 12.0516 38.2867 12 38.024 12C37.7613 12.0001 37.5012 12.0519 37.2585 12.1525C37.0158 12.2531 36.7953 12.4005 36.6096 12.5863C36.2345 12.9616 36.0239 13.4705 36.024 14.001C36.0241 14.5316 36.235 15.0404 36.6103 15.4154C36.9855 15.7905 37.4944 16.0012 38.025 16.001C38.5556 16.0009 39.0643 15.79 39.4394 15.4147C39.8145 15.0395 40.0251 14.5306 40.025 14V14ZM52.032 14C52.0319 13.4696 51.821 12.9609 51.4459 12.586C51.0707 12.211 50.5619 12.0004 50.0315 12.0005C49.5011 12.0007 48.9924 12.2115 48.6174 12.5867C48.2425 12.9618 48.0319 13.4706 48.032 14.001C48.0321 14.5315 48.243 15.0401 48.6181 15.4151C48.8039 15.6008 49.0244 15.748 49.2671 15.8485C49.5098 15.9489 49.7699 16.0006 50.0325 16.0005C50.2951 16.0005 50.5552 15.9487 50.7978 15.8481C51.0405 15.7475 51.2609 15.6001 51.4466 15.4144C51.6322 15.2286 51.7795 15.0081 51.88 14.7654C51.9804 14.5228 52.0321 14.2627 52.032 14ZM40.025 2.00002C40.0249 1.46946 39.814 0.960676 39.4387 0.585603C39.0635 0.21053 38.5546 -0.000109108 38.024 2.35001e-05C37.4934 0.000156108 36.9847 0.21105 36.6096 0.58631C36.2345 0.96157 36.0239 1.47046 36.024 2.00102C36.0241 2.53159 36.235 3.04037 36.6103 3.41544C36.9855 3.79052 37.4944 4.00116 38.025 4.00102C38.5556 4.00089 39.0643 3.79 39.4394 3.41474C39.8145 3.03948 40.0251 2.53059 40.025 2.00002V2.00002ZM52.032 2.00002C52.0319 1.46959 51.821 0.960935 51.4459 0.585956C51.0707 0.210977 50.5619 0.000390892 50.0315 0.0005235C49.5011 0.000656108 48.9924 0.211497 48.6174 0.586663C48.2425 0.96183 48.0319 1.47059 48.032 2.00102C48.0321 2.53146 48.243 3.04011 48.6181 3.41509C48.9933 3.79007 49.5021 4.00066 50.0325 4.00052C50.5629 4.00039 51.0716 3.78955 51.4466 3.41438C51.8215 3.03922 52.0321 2.53046 52.032 2.00002Z" fill="#808080" fill-opacity="0.3"/>
</g>
<defs>
<clipPath id="clip0_26_2">
<rect width="53" height="52" fill="white"/>
</clipPath>
</defs>
</svg>
