<svg width="25" height="25" fill="none" xmlns="http://www.w3.org/2000/svg"><path d="m7.166 14.066-1.038 1.41.753 1.384 1.672-.248.066.07-.234 1.771 1.306.798 1.33-1.1.092.027.63 1.659h1.51l.631-1.659.091-.026 1.331 1.099 1.306-.798-.234-1.771.066-.07 1.672.248.753-1.384-1.038-1.41.025-.096 1.563-.669v-1.599l-1.563-.669-.025-.096 1.038-1.41-.753-1.384-1.672.248-.066-.07.234-1.77-1.306-.799-1.33 1.1-.092-.027-.63-1.656h-1.51l-.631 1.656-.091.027-1.331-1.1-1.306.798.234 1.772-.066.07-1.672-.25-.753 1.385 1.038 1.41-.025.096-1.563.669v1.6l1.563.668.025.096ZM12.5 9.073c1.788 0 3.235 1.533 3.235 3.427 0 1.894-1.447 3.427-3.235 3.427-1.787 0-3.234-1.533-3.234-3.427 0-1.894 1.447-3.427 3.234-3.427Z" fill="url(#a)"/><path d="M5.672 5.265c3.253-3.447 8.285-3.983 12.094-1.34L19.3 2.298C14.603-1.221 8.241-.648 4.166 3.669.48 7.57-.313 13.45 2.019 18.215L0 20.354h5.019v-5.318l-1.406 1.49c-1.532-3.781-.788-8.247 2.059-11.26Z" fill="url(#b)"/><path d="M19.981 4.646v5.318l1.406-1.49c1.532 3.781.788 8.248-2.056 11.26-3.253 3.447-8.284 3.984-12.094 1.342L5.703 22.7c4.697 3.52 11.06 2.947 15.134-1.37 3.682-3.901 4.476-9.781 2.144-14.546L25 4.647h-5.019Z" fill="url(#c)"/><defs><linearGradient id="a" x1="12.498" y1="5.169" x2="12.498" y2="19.837" gradientUnits="userSpaceOnUse"><stop stop-color="#82CCFF"/><stop offset="1" stop-color="#08F"/></linearGradient><linearGradient id="b" x1="9.65" y1="0" x2="9.65" y2="20.354" gradientUnits="userSpaceOnUse"><stop stop-color="#82CCFF"/><stop offset="1" stop-color="#08F"/></linearGradient><linearGradient id="c" x1="15.351" y1="4.646" x2="15.351" y2="25" gradientUnits="userSpaceOnUse"><stop stop-color="#82CCFF"/><stop offset="1" stop-color="#08F"/></linearGradient></defs></svg>