<svg width="100" height="100" fill="none" xmlns="http://www.w3.org/2000/svg"><path d="M89.524 0H20.156C14.38 0 9.681 4.343 9.681 9.68v4.147H4.725C2.12 13.828 0 15.788 0 18.195v3.058c0 2.407 2.12 4.367 4.725 4.367H9.68v8.397l-4.956-.001C2.12 34.015 0 35.974 0 38.38v3.058c0 2.407 2.12 4.367 4.725 4.367H9.68v8.397l-4.956-.001C2.12 54.202 0 56.16 0 58.568v3.058c0 2.408 2.12 4.367 4.725 4.367H9.68v8.397l-4.956-.001C2.12 74.389 0 76.348 0 78.755v3.058c0 2.407 2.12 4.367 4.725 4.367H9.68v4.14c0 5.337 4.7 9.68 10.475 9.68h69.368c5.776 0 10.475-4.343 10.475-9.68L100 9.682C100 4.345 95.3 0 89.525 0L89.524 0ZM3.492 21.252v-3.059c0-.628.553-1.14 1.233-1.14h11.24c.68 0 1.233.511 1.233 1.14v3.058c0 .629-.552 1.14-1.233 1.14H4.725c-.668 0-1.233-.522-1.233-1.14Zm0 20.185v-3.058c0-.628.553-1.14 1.233-1.14h11.24c.668 0 1.233.522 1.233 1.14v3.058c0 .628-.552 1.14-1.233 1.14H4.725c-.668 0-1.233-.522-1.233-1.14Zm0 20.186v-3.059c0-.628.553-1.14 1.233-1.14h11.24c.68 0 1.233.511 1.233 1.14v3.059c0 .628-.552 1.14-1.233 1.14H4.725c-.668 0-1.233-.523-1.233-1.14Zm0 20.185V78.75c0-.617.565-1.14 1.233-1.14h11.24c.68 0 1.233.511 1.233 1.14v3.058c0 .628-.552 1.14-1.233 1.14H4.725c-.68 0-1.233-.51-1.233-1.14Zm9.68 8.511v-4.146h2.793c2.605 0 4.725-1.96 4.725-4.367v-3.058c0-2.407-2.12-4.366-4.725-4.366h-2.793v-8.397h2.793c2.605 0 4.725-1.96 4.725-4.366V58.56c0-2.407-2.12-4.366-4.725-4.366h-2.793v-8.397h2.793c2.605 0 4.725-1.959 4.725-4.366v-3.058c0-2.407-2.12-4.367-4.725-4.367h-2.793V25.61h2.793c2.605 0 4.725-1.959 4.725-4.366v-3.058c0-2.407-2.12-4.366-4.725-4.366h-2.793V9.68c0-3.559 3.134-6.454 6.984-6.454h5.994v93.549h-5.994c-3.85-.002-6.984-2.897-6.984-6.457Zm83.336 0c0 3.56-3.133 6.454-6.984 6.454l-59.883.001V3.227h59.883c3.851 0 6.984 2.896 6.984 6.454V90.32Zm-3.9-35.339-2.243-1.196V41.786c0-.595-.354-1.143-.92-1.422L62.34 26.96a1.87 1.87 0 0 0-1.647 0L33.59 40.364c-.567.28-.921.827-.921 1.421 0 .595.354 1.142.92 1.422l7.65 3.782v15.596c0 .576.332 1.109.872 1.396l15.476 8.258a8.32 8.32 0 0 0 3.93 1c1.34 0 2.682-.333 3.93-1l15.476-8.258c.54-.287.872-.82.872-1.396V46.989l5.08-2.512v9.306l-2.243 1.197c-.54.287-.872.82-.872 1.396v8.78c0 .611.374 1.17.965 1.444a1.862 1.862 0 0 0 1.83-.154l2.066-1.436 2.066 1.436c.53.367 1.237.427 1.829.154.592-.274.966-.832.966-1.444v-8.78c-.001-.575-.334-1.107-.874-1.396h.002ZM63.703 69.445c-1.409.751-2.96.751-4.369 0L44.73 61.654v-2.22l13.469 7.186a7.027 7.027 0 0 0 3.318.844 7.027 7.027 0 0 0 3.32-.844l13.468-7.186v2.22l-14.603 7.791ZM78.306 55.71 63.09 63.828a3.251 3.251 0 0 1-3.147 0L44.73 55.71v-6.995l15.965 7.895a1.86 1.86 0 0 0 1.648 0l15.963-7.895v6.995ZM61.517 53.36 38.113 41.785l23.404-11.573 23.404 11.573L61.517 53.36Zm28.472 8.57-.32-.224a1.841 1.841 0 0 0-1.049-.324c-.37 0-.738.107-1.048.324l-.321.223v-4.62l1.37-.73 1.372.73-.001 4.62h-.003Z" fill="#292929"/></svg>