<svg width="102" height="100" fill="none" xmlns="http://www.w3.org/2000/svg"><path d="M40.45 7.66c0-1.075.949-1.952 2.11-1.952s2.11.877 2.11 1.951-.949 1.951-2.11 1.951c-1.162 0-2.11-.877-2.11-1.95ZM29.844 30.99l-7.675 6.44-2.49-2.305a1.845 1.845 0 0 0-2.467 0c-.68.63-.68 1.651 0 2.28l3.666 3.39c.34.315.787.473 1.233.473.419 0 .838-.138 1.17-.419l8.905-7.473c.713-.599.767-1.619.12-2.279-.647-.657-1.75-.707-2.462-.108Zm10.149 2.629h26.685c.964 0 1.744-.722 1.744-1.613 0-.89-.78-1.612-1.744-1.612l-26.685-.001c-.963 0-1.744.721-1.744 1.612 0 .892.78 1.614 1.744 1.614Zm26.685 4.248H39.992c-.963 0-1.744.722-1.744 1.613 0 .89.78 1.612 1.744 1.612h26.685c.964 0 1.744-.721 1.744-1.612 0-.891-.78-1.613-1.744-1.613Zm0 12.848H39.992c-.963 0-1.744.721-1.744 1.612 0 .891.78 1.613 1.744 1.613h26.685c.964 0 1.744-.722 1.744-1.613 0-.89-.78-1.612-1.744-1.612Zm0 7.473H39.992c-.963 0-1.744.722-1.744 1.613 0 .89.78 1.613 1.744 1.613h26.685c.964 0 1.744-.722 1.744-1.613 0-.89-.78-1.613-1.744-1.613Zm-36.834-7.055-7.675 6.441-2.49-2.305a1.845 1.845 0 0 0-2.467 0c-.68.63-.68 1.651 0 2.28l3.666 3.39c.34.315.787.473 1.233.473.419 0 .838-.138 1.17-.419l8.905-7.473c.713-.599.767-1.619.12-2.279-.647-.657-1.75-.707-2.462-.108Zm0 20.323-7.675 6.44-2.49-2.304a1.845 1.845 0 0 0-2.467 0c-.68.63-.68 1.65 0 2.28l3.666 3.39c.34.314.787.472 1.233.472.419 0 .838-.138 1.17-.418l8.905-7.474c.713-.599.767-1.618.12-2.278-.647-.657-1.75-.707-2.462-.108Zm71.293-35.35-16.019 25.66v32.282c0 3.282-2.886 5.952-6.435 5.952H6.436C2.887 100 0 97.33 0 94.048V14.213c0-3.281 2.887-5.952 6.437-5.952h16.317V7.253c0-.891.78-1.613 1.744-1.613h9.038C34.991 2.263 38.526 0 42.56 0c4.033 0 7.568 2.264 9.022 5.64h9.039c.963 0 1.744.722 1.744 1.613v1.01H78.68c3.549 0 6.436 2.669 6.436 5.951V34.34l3.177-5.09c.863-1.38 2.257-2.37 3.928-2.784a6.882 6.882 0 0 1 4.907.595l1.637.873c3.09 1.65 4.152 5.316 2.369 8.173h.001ZM62.365 11.49v2.81h14.482c.963 0 1.744.722 1.744 1.613v28.882l3.038-4.866V14.216c0-1.503-1.322-2.725-2.947-2.725H62.365Zm9.77 62.258-4.588-2.45v4.9l4.589-2.45Zm2.968-23.366V17.526H62.364v1.01c0 .89-.78 1.612-1.743 1.612H24.499c-.963 0-1.744-.722-1.744-1.612v-1.01H10.016V90.74h65.087v-14.85l-6.81 3.636c.082.186.126.388.126.601 0 .891-.78 1.613-1.743 1.613H39.99c-.963 0-1.744-.722-1.744-1.613 0-.89.78-1.612 1.744-1.612h24.07v-4.249H39.99c-.963 0-1.744-.721-1.744-1.612 0-.891.78-1.613 1.744-1.613h24.07v-2.533c0-.28.081-.564.233-.807l10.81-17.318Zm-48.86-33.458h32.633V8.869h-8.564c-.805 0-1.507-.51-1.695-1.235-.677-2.594-3.167-4.406-6.058-4.406-2.89 0-5.38 1.812-6.057 4.406-.188.723-.89 1.235-1.695 1.235h-8.564v8.055Zm55.387 50.43-3.039 4.867v20.132c0 .89-.78 1.613-1.743 1.613H8.27c-.963 0-1.744-.722-1.744-1.613V15.914c0-.89.78-1.612 1.744-1.612h14.482v-2.81H6.436c-1.625 0-2.947 1.222-2.947 2.725v79.832c0 1.503 1.322 2.726 2.947 2.726h72.246c1.625 0 2.947-1.223 2.947-2.726V67.355Zm16.778-34.948a2.777 2.777 0 0 0-1.385-1.675l-1.637-.873a3.167 3.167 0 0 0-2.26-.272c-.772.19-1.416.646-1.812 1.28l-23.128 37.05 6.8 3.63 23.13-37.05a2.56 2.56 0 0 0 .293-2.09h-.001Z" fill="#F0F0F0"/></svg>