<svg width="40" height="40" fill="none" xmlns="http://www.w3.org/2000/svg"><g clip-path="url(#a)"><path d="M31.667 0H8.333A8.334 8.334 0 0 0 0 8.333v23.334A8.334 8.334 0 0 0 8.333 40h23.334A8.333 8.333 0 0 0 40 31.667V8.333A8.333 8.333 0 0 0 31.667 0Zm-7.444 32.65c-.675.13-.89-.285-.89-.64v-3.658c0-1.245-.436-2.055-.916-2.469 2.97-.33 6.09-1.458 6.09-6.578 0-1.457-.52-2.647-1.372-3.578.137-.337.593-1.694-.132-3.529 0 0-1.118-.358-3.663 1.367a12.695 12.695 0 0 0-3.34-.452 12.738 12.738 0 0 0-3.338.449c-2.547-1.725-3.667-1.367-3.667-1.367-.723 1.837-.267 3.192-.128 3.53-.854.933-1.374 2.122-1.374 3.578 0 5.107 3.112 6.252 6.075 6.59-.381.334-.726.92-.846 1.784-.762.34-2.69.928-3.88-1.11 0 0-.705-1.28-2.045-1.375 0 0-1.3-.017-.092.811 0 0 .875.41 1.482 1.95 0 0 .771 2.38 4.48 1.574v2.481c0 .352-.215.765-.88.642-5.3-1.762-9.12-6.76-9.12-12.65 0-7.365 5.97-13.333 13.333-13.333S33.333 12.635 33.333 20c0 5.888-3.815 10.885-9.11 12.65Z" fill="#000"/></g><defs><clipPath id="a"><path fill="#fff" d="M0 0h40v40H0z"/></clipPath></defs></svg>