<svg width="30" height="25" fill="none" xmlns="http://www.w3.org/2000/svg"><path d="M6.493 5.313 5.248 8.284h2.484l-1.239-2.97Z" fill="url(#a)"/><path d="M2.733 17.677h7.585c.308-1.026.468-2.1.468-3.184v-4.436a3.928 3.928 0 0 1 3.92-3.92h3.765c.06-.177.13-.355.208-.527.16-.374.338-.742.533-1.103a.665.665 0 0 1 .072-.125c.077-.148.16-.296.255-.439.106-.178.219-.356.343-.527a7.45 7.45 0 0 1 .368-.51c.125-.167.255-.333.397-.487.267-.32.558-.628.866-.925l.492-.474A.593.593 0 0 0 21.596 0H2.733A2.734 2.734 0 0 0 0 2.734v12.21a2.734 2.734 0 0 0 2.733 2.733Zm.137-6.778.942-2.253 2.13-5.1a.597.597 0 0 1 1.096 0l3.078 7.353a.596.596 0 0 1-.551.824.588.588 0 0 1-.546-.367L8.23 9.47H4.75l-.79 1.886a.595.595 0 0 1-.776.32.588.588 0 0 1-.314-.777Z" fill="url(#b)"/><path d="M20.807 17.505c1.02-1.251 1.72-2.568 2.106-3.38h-4.205c.38.812 1.086 2.128 2.1 3.38Z" fill="url(#c)"/><path d="M29.649 22.267v-12.21a2.738 2.738 0 0 0-2.734-2.734h-12.21a2.738 2.738 0 0 0-2.733 2.734v4.436c0 3.38-1.4 6.665-3.837 9.007l-.498.48a.583.583 0 0 0-.136.646.59.59 0 0 0 .545.374h18.87a2.738 2.738 0 0 0 2.733-2.733Zm-4.163-1.584a.59.59 0 0 1 .45.706.589.589 0 0 1-.575.469.528.528 0 0 1-.13-.018c-1.785-.386-3.25-1.388-4.424-2.55-1.168 1.162-2.639 2.164-4.423 2.55a.45.45 0 0 1-.125.018.595.595 0 0 1-.13-1.175c1.541-.338 2.828-1.227 3.872-2.277-1.418-1.69-2.265-3.498-2.598-4.281h-2.39a.587.587 0 0 1-.592-.593.59.59 0 0 1 .593-.593h5.2v-1.88c0-.326.267-.592.593-.592.326 0 .593.266.593.592v1.88h5.206c.326 0 .593.267.593.593a.59.59 0 0 1-.593.593h-2.39c-.332.783-1.185 2.591-2.597 4.281 1.038 1.05 2.325 1.94 3.867 2.277Z" fill="url(#d)"/><defs><linearGradient id="a" x1="6.49" y1="5.313" x2="6.49" y2="8.284" gradientUnits="userSpaceOnUse"><stop stop-color="#82CCFF"/><stop offset="1" stop-color="#08F"/></linearGradient><linearGradient id="b" x1="11.093" y1="0" x2="11.093" y2="17.677" gradientUnits="userSpaceOnUse"><stop stop-color="#82CCFF"/><stop offset="1" stop-color="#08F"/></linearGradient><linearGradient id="c" x1="20.81" y1="14.125" x2="20.81" y2="17.505" gradientUnits="userSpaceOnUse"><stop stop-color="#82CCFF"/><stop offset="1" stop-color="#08F"/></linearGradient><linearGradient id="d" x1="18.552" y1="7.323" x2="18.552" y2="25" gradientUnits="userSpaceOnUse"><stop stop-color="#82CCFF"/><stop offset="1" stop-color="#08F"/></linearGradient></defs></svg>