<svg width="40" height="40" viewBox="0 0 40 40" fill="none" xmlns="http://www.w3.org/2000/svg">
<g clip-path="url(#clip0_27_47)">
<path d="M0 10C0 4.47715 4.47715 0 10 0H30C35.5228 0 40 4.47715 40 10V30C40 35.5228 35.5228 40 30 40H10C4.47715 40 0 35.5228 0 30V10Z" fill="black"/>
<path d="M16.8333 32.3333V15.8333H21.1667V18.3333C21.1667 17.5 22.2667 15.8333 26.6667 15.8333C31.0667 15.8333 32.2778 19.3889 32.3333 21.1667V32.3333H27.6667V23.8333C27.6111 22.5556 26.9 20 24.5 20C22.1 20 21.5 21.8889 21.5 22.8333V32.3333H16.8333Z" fill="white"/>
<path d="M7.66667 32.3333V15.8333H13.3333V32.3333H7.66667Z" fill="white"/>
<path d="M13.3333 10.3333C13.3333 11.9902 11.9902 13.3333 10.3333 13.3333C8.67648 13.3333 7.33333 11.9902 7.33333 10.3333C7.33333 8.67648 8.67648 7.33333 10.3333 7.33333C11.9902 7.33333 13.3333 8.67648 13.3333 10.3333Z" fill="white"/>
</g>
<defs>
<clipPath id="clip0_27_47">
<rect width="40" height="40" fill="white"/>
</clipPath>
</defs>
</svg>
