<svg width="40" height="40" fill="none" xmlns="http://www.w3.org/2000/svg"><g clip-path="url(#a)"><path d="M0 10C0 4.477 4.477 0 10 0h20c5.523 0 10 4.477 10 10v20c0 5.523-4.477 10-10 10H10C4.477 40 0 35.523 0 30V10Z" fill="#000"/><path d="M16.833 32.333v-16.5h4.334v2.5c0-.833 1.1-2.5 5.5-2.5s5.61 3.556 5.666 5.334v11.166h-4.666v-8.5C27.61 22.556 26.9 20 24.5 20s-3 1.889-3 2.833v9.5h-4.667ZM7.667 32.333v-16.5h5.666v16.5H7.667ZM13.333 10.333a3 3 0 1 1-6 0 3 3 0 0 1 6 0Z" fill="#fff"/></g><defs><clipPath id="a"><path fill="#fff" d="M0 0h40v40H0z"/></clipPath></defs></svg>