<svg width="372" height="36" fill="none" xmlns="http://www.w3.org/2000/svg"><path d="M3.258.875H9.21l8.766 25.055L26.742.875h5.953L20.367 35h-4.781L3.258.875Zm-3.211 0h5.93l1.078 24.422V35H.047V.875Zm29.93 0h5.953V35h-7.032v-9.703L29.977.875ZM53.086 14.797 45.82 35H39L49.781 7.695h4.64l-1.335 7.102ZM60.258 35l-7.406-20.203-1.36-7.102h4.711L67.055 35h-6.797Zm-.14-10.148v4.804H45.022v-4.804h15.094ZM69.398 7.695h11.415c1.687 0 3.21.18 4.57.54 1.36.343 2.515.859 3.469 1.546a6.92 6.92 0 0 1 2.226 2.578c.516 1.016.774 2.196.774 3.54 0 1.593-.266 2.921-.797 3.984a6.993 6.993 0 0 1-2.203 2.601c-.938.672-2.024 1.235-3.258 1.688l-2.25 1.312H73.64l-.047-5.273h7.265c.938 0 1.72-.14 2.344-.422.625-.297 1.094-.719 1.406-1.266.313-.546.47-1.195.47-1.945 0-.765-.165-1.414-.493-1.945-.328-.531-.813-.938-1.453-1.219-.625-.281-1.399-.422-2.32-.422h-4.641V35h-6.774V7.695ZM85.594 35l-6.54-12.047 7.173-.07 6.656 11.836V35h-7.29ZM113.109 25.695h6.774c-.11 1.938-.664 3.633-1.664 5.086-1 1.453-2.383 2.586-4.149 3.399-1.765.797-3.843 1.195-6.234 1.195-1.953 0-3.695-.305-5.227-.914-1.515-.61-2.804-1.492-3.867-2.648-1.062-1.157-1.875-2.555-2.437-4.196-.547-1.64-.82-3.5-.82-5.578v-1.36c0-2.077.288-3.937.867-5.577.578-1.657 1.406-3.063 2.484-4.22a10.749 10.749 0 0 1 3.867-2.648c1.5-.625 3.18-.937 5.039-.937 2.531 0 4.664.43 6.399 1.289 1.75.86 3.101 2.039 4.054 3.539.969 1.484 1.539 3.18 1.711 5.086h-6.75c-.047-.875-.25-1.656-.609-2.344-.359-.703-.93-1.258-1.711-1.664-.766-.406-1.797-.61-3.094-.61-.906 0-1.703.165-2.39.493-.688.328-1.266.828-1.735 1.5-.453.672-.797 1.516-1.031 2.531-.234 1-.352 2.18-.352 3.54v1.382c0 1.375.102 2.57.305 3.586.219 1.016.555 1.86 1.008 2.531a4.274 4.274 0 0 0 1.734 1.477c.719.328 1.571.492 2.555.492 1.125 0 2.07-.156 2.836-.469.766-.328 1.351-.82 1.758-1.476.406-.657.632-1.485.679-2.485ZM148.031 20.797v1.125c0 2.078-.312 3.945-.937 5.601-.61 1.657-1.477 3.07-2.602 4.243a11.366 11.366 0 0 1-4.031 2.695c-1.547.61-3.258.914-5.133.914s-3.594-.305-5.156-.914a11.64 11.64 0 0 1-4.031-2.695c-1.141-1.172-2.024-2.586-2.649-4.243-.625-1.656-.937-3.523-.937-5.601v-1.125c0-2.094.304-3.961.914-5.602.625-1.656 1.5-3.07 2.625-4.242a11.222 11.222 0 0 1 4.031-2.695c1.563-.625 3.281-.938 5.156-.938 1.875 0 3.586.313 5.133.938a11.186 11.186 0 0 1 4.055 2.695c1.14 1.172 2.015 2.586 2.625 4.242.625 1.64.937 3.508.937 5.602Zm-6.773 1.125V20.75c0-1.313-.141-2.469-.422-3.469-.266-1.015-.656-1.867-1.172-2.554a4.841 4.841 0 0 0-1.875-1.594c-.734-.375-1.57-.563-2.508-.563-.953 0-1.804.188-2.554.563-.735.36-1.352.89-1.852 1.594-.5.687-.883 1.539-1.148 2.554-.25 1-.375 2.157-.375 3.469v1.172c0 1.297.125 2.453.375 3.469.265 1.015.656 1.882 1.171 2.601a5.301 5.301 0 0 0 1.875 1.617c.75.36 1.602.54 2.555.54.938 0 1.774-.18 2.508-.54a5.099 5.099 0 0 0 1.852-1.617c.515-.719.906-1.586 1.171-2.601.266-1.016.399-2.172.399-3.47ZM167.156 27.688c0-.438-.086-.836-.258-1.196-.171-.375-.46-.71-.867-1.008-.39-.297-.922-.578-1.593-.843-.672-.266-1.508-.516-2.508-.75-1.719-.407-3.211-.852-4.477-1.336-1.25-.5-2.289-1.07-3.117-1.711a6.293 6.293 0 0 1-1.828-2.344c-.406-.906-.61-1.969-.61-3.188 0-1.171.258-2.25.774-3.234a7.485 7.485 0 0 1 2.18-2.531c.937-.703 2.046-1.25 3.328-1.64 1.281-.391 2.679-.587 4.195-.587 2.203 0 4.148.344 5.836 1.032 1.703.687 3.031 1.664 3.984 2.93.953 1.25 1.43 2.757 1.43 4.523h-6.75c0-.657-.18-1.258-.539-1.805-.344-.547-.844-.984-1.5-1.313-.656-.343-1.469-.515-2.438-.515-.937 0-1.71.148-2.32.445-.609.281-1.062.649-1.359 1.102-.281.437-.422.89-.422 1.36 0 .39.086.75.258 1.077.187.328.476.633.867.914.406.266.93.524 1.57.774.656.234 1.446.468 2.367.703 1.719.375 3.211.82 4.477 1.336 1.281.5 2.344 1.101 3.187 1.805a6.63 6.63 0 0 1 1.922 2.507c.422.953.633 2.055.633 3.305s-.258 2.367-.773 3.352c-.5.968-1.227 1.789-2.18 2.46-.937.672-2.07 1.188-3.398 1.547-1.313.344-2.782.516-4.407.516-1.453 0-2.882-.172-4.289-.516a12.824 12.824 0 0 1-3.82-1.593 8.563 8.563 0 0 1-2.742-2.813c-.672-1.14-1.008-2.508-1.008-4.101h6.773c0 .75.11 1.39.328 1.921.235.532.579.97 1.032 1.313.468.328 1.039.57 1.711.727.687.156 1.476.234 2.367.234 1 0 1.789-.14 2.367-.422.594-.297 1.008-.664 1.242-1.102.25-.437.375-.882.375-1.335ZM191.273.875h11.297c2.563 0 4.727.39 6.492 1.172 1.782.781 3.133 1.937 4.055 3.469.938 1.515 1.406 3.382 1.406 5.601 0 1.563-.32 2.992-.961 4.29-.624 1.28-1.531 2.374-2.718 3.28-1.172.891-2.578 1.555-4.219 1.993l-1.266.492h-10.617l-.047-3.68h8.016c1.625 0 2.977-.281 4.055-.844 1.078-.578 1.89-1.351 2.437-2.32.547-.969.82-2.039.82-3.21 0-1.313-.257-2.462-.773-3.446s-1.328-1.742-2.438-2.274c-1.093-.546-2.507-.82-4.242-.82h-6.773V35h-4.524V.875ZM211.219 35l-8.297-15.469 4.711-.023 8.414 15.21V35h-4.828ZM243.023 20.586v1.547c0 2.062-.281 3.914-.843 5.555-.563 1.625-1.368 3.015-2.414 4.171a10.531 10.531 0 0 1-3.774 2.625c-1.453.594-3.078.891-4.875.891-1.765 0-3.383-.297-4.851-.89a11.036 11.036 0 0 1-3.797-2.626c-1.063-1.156-1.883-2.547-2.461-4.172-.578-1.64-.867-3.492-.867-5.554v-1.547c0-2.063.289-3.906.867-5.531.578-1.64 1.39-3.04 2.437-4.196a10.42 10.42 0 0 1 3.774-2.625c1.469-.609 3.086-.914 4.851-.914 1.813 0 3.446.305 4.899.914a10.152 10.152 0 0 1 3.773 2.625c1.063 1.157 1.875 2.555 2.438 4.196.562 1.625.843 3.468.843 5.53Zm-4.289 1.547v-1.594c0-1.547-.172-2.914-.515-4.102-.344-1.187-.844-2.187-1.5-3a6.387 6.387 0 0 0-2.414-1.851c-.953-.422-2.032-.633-3.235-.633-1.156 0-2.203.211-3.14.633a6.627 6.627 0 0 0-2.414 1.851c-.657.813-1.164 1.813-1.524 3-.359 1.188-.539 2.555-.539 4.102v1.594c0 1.547.18 2.922.539 4.125.36 1.187.875 2.195 1.547 3.023a6.635 6.635 0 0 0 2.414 1.852c.953.422 2.008.633 3.164.633 1.219 0 2.297-.211 3.235-.633a6.425 6.425 0 0 0 2.39-1.852c.656-.828 1.149-1.836 1.477-3.023.343-1.203.515-2.578.515-4.125ZM259.219 22.555h-7.477l-.047-3.282h6.68c1.125 0 2.094-.148 2.906-.445.813-.312 1.438-.758 1.875-1.336.438-.594.656-1.312.656-2.156 0-.938-.218-1.703-.656-2.297-.437-.61-1.086-1.055-1.945-1.336-.844-.281-1.891-.422-3.141-.422h-5.179V35h-4.336V7.695h9.515c1.547 0 2.938.149 4.172.446 1.235.296 2.289.75 3.164 1.359a6.052 6.052 0 0 1 2.039 2.32c.469.938.703 2.047.703 3.328a5.51 5.51 0 0 1-.89 3.047c-.594.907-1.446 1.649-2.555 2.227-1.109.562-2.453.898-4.031 1.008l-1.453 1.125ZM259.008 35h-8.813l2.227-3.563h6.586c1.203 0 2.211-.171 3.023-.515.828-.344 1.453-.836 1.875-1.477.438-.64.656-1.406.656-2.297 0-.921-.187-1.726-.562-2.414-.359-.687-.938-1.218-1.734-1.593-.782-.391-1.797-.586-3.047-.586h-5.602l.024-3.282h7.523l.938 1.243c1.5.047 2.75.39 3.75 1.03 1.015.626 1.781 1.438 2.296 2.438.516.985.774 2.047.774 3.188 0 1.297-.234 2.437-.703 3.422a6.395 6.395 0 0 1-1.992 2.437c-.86.657-1.899 1.149-3.118 1.477-1.218.328-2.586.492-4.101.492ZM293.32 31.438V35h-15.562v-3.563h15.562ZM278.812 7.695V35h-4.335V7.695h4.335Zm12.469 11.414v3.54h-13.523v-3.54h13.523Zm1.899-11.414v3.586h-15.422V7.695h15.422ZM297.844 7.695h9.984c1.656 0 3.133.188 4.43.563 1.297.36 2.39.89 3.281 1.594a6.702 6.702 0 0 1 2.016 2.601c.468 1.031.703 2.219.703 3.563 0 1.343-.274 2.539-.82 3.586-.532 1.03-1.305 1.906-2.321 2.625-1 .703-2.195 1.242-3.586 1.617l-1.289.633h-9.234l-.047-3.563h6.984c1.328 0 2.43-.203 3.305-.61.875-.421 1.531-.984 1.969-1.687a4.433 4.433 0 0 0 .679-2.414c0-.984-.21-1.844-.632-2.578-.422-.734-1.086-1.305-1.993-1.71-.89-.423-2.039-.634-3.445-.634h-5.625V35h-4.359V7.695ZM314.836 35l-7.031-12.164 4.57-.023 7.125 11.953V35h-4.664ZM334.594 7.695V35h-4.313V7.695h4.313Zm9.351 0v3.586h-22.968V7.695h22.968ZM371.086 20.586v1.547c0 2.062-.281 3.914-.844 5.555-.562 1.625-1.367 3.015-2.414 4.171a10.536 10.536 0 0 1-3.773 2.625c-1.453.594-3.078.891-4.875.891-1.766 0-3.383-.297-4.852-.89a11.046 11.046 0 0 1-3.797-2.626c-1.062-1.156-1.883-2.547-2.461-4.172-.578-1.64-.867-3.492-.867-5.554v-1.547c0-2.063.289-3.906.867-5.531.578-1.64 1.391-3.04 2.438-4.196a10.408 10.408 0 0 1 3.773-2.625c1.469-.609 3.086-.914 4.852-.914 1.812 0 3.445.305 4.898.914a10.156 10.156 0 0 1 3.774 2.625c1.062 1.157 1.875 2.555 2.437 4.196.563 1.625.844 3.468.844 5.53Zm-4.289 1.547v-1.594c0-1.547-.172-2.914-.516-4.102-.343-1.187-.843-2.187-1.5-3a6.38 6.38 0 0 0-2.414-1.851c-.953-.422-2.031-.633-3.234-.633-1.156 0-2.203.211-3.141.633a6.636 6.636 0 0 0-2.414 1.851c-.656.813-1.164 1.813-1.523 3-.36 1.188-.539 2.555-.539 4.102v1.594c0 1.547.179 2.922.539 4.125.359 1.187.875 2.195 1.547 3.023a6.618 6.618 0 0 0 2.414 1.852c.953.422 2.007.633 3.164.633 1.218 0 2.297-.211 3.234-.633a6.428 6.428 0 0 0 2.391-1.852c.656-.828 1.148-1.836 1.476-3.023.344-1.203.516-2.578.516-4.125Z" fill="#141414"/></svg>