<svg width="100" height="100" fill="none" xmlns="http://www.w3.org/2000/svg"><path d="M37.408 7.66c0-1.074.877-1.95 1.95-1.95 1.075 0 1.952.876 1.952 1.95 0 1.074-.877 1.951-1.951 1.951a1.955 1.955 0 0 1-1.951-1.95Zm24.568 17.63H16.744a1.612 1.612 0 1 0 0 3.224h45.233a1.612 1.612 0 1 0 0-3.225h-.001Zm37.551 11.062-9.079 9.08a28.25 28.25 0 0 1 3.084 12.826c0 10.71-5.999 20.046-14.811 24.826v10.963a5.959 5.959 0 0 1-5.952 5.952L5.952 100A5.959 5.959 0 0 1 0 94.048V14.214c0-3.282 2.67-5.951 5.952-5.951h15.092v-1.01c0-.891.721-1.613 1.612-1.613h8.36A8.956 8.956 0 0 1 39.36 0c3.73 0 6.999 2.264 8.345 5.64h8.359c.89 0 1.613.722 1.613 1.613v1.01h15.091a5.959 5.959 0 0 1 5.952 5.95v18.448l8.558-8.558a1.614 1.614 0 0 1 2.717.8l1.144 5.307 2.35-2.35a1.613 1.613 0 0 1 2.28 2.28l-2.35 2.35 5.307 1.144a1.613 1.613 0 0 1 .8 2.718Zm-19.925-.007.957 4.447 8.15-8.15a1.603 1.603 0 0 1-.537-.89l-.705-3.273-7.865 7.866Zm-9.06 19.027-3.793 3.793a1.609 1.609 0 0 1-2.28 0c-.63-.63-.63-1.65 0-2.28l3.81-3.81a5.941 5.941 0 0 0-2.966-.791 5.982 5.982 0 0 0-5.976 5.976 5.982 5.982 0 0 0 5.976 5.976 5.983 5.983 0 0 0 5.976-5.976 5.947 5.947 0 0 0-.747-2.888Zm4.548-9.11a15.413 15.413 0 0 0-9.778-3.488c-8.538 0-15.485 6.947-15.485 15.486 0 8.538 6.946 15.485 15.485 15.485 8.538 0 15.485-6.947 15.485-15.486 0-3.673-1.289-7.05-3.434-9.709l-4.483 4.483a9.147 9.147 0 0 1 1.634 5.227c0 5.073-4.127 9.201-9.202 9.201s-9.202-4.127-9.202-9.201c0-5.075 4.127-9.202 9.202-9.202a9.15 9.15 0 0 1 5.296 1.684l4.482-4.48ZM57.678 11.49v2.81h13.394c.891 0 1.613.722 1.613 1.613v15.106c.953.257 1.89.566 2.81.922V14.214a2.729 2.729 0 0 0-2.726-2.725H57.678Zm7.635 18.55c1.393 0 2.778.106 4.147.31V17.524H57.678v1.01c0 .89-.722 1.612-1.613 1.612H22.657c-.89 0-1.612-.722-1.612-1.613v-1.01H9.263V90.74h60.196v-4.565a28.35 28.35 0 0 1-4.147.305c-4.932 0-9.57-1.273-13.608-3.504H16.745a1.612 1.612 0 1 1 0-3.226h30.297a28.42 28.42 0 0 1-6.324-7.665l-23.973-.001a1.612 1.612 0 1 1 0-3.225H39.16a27.982 27.982 0 0 1-1.915-7.666h-20.5a1.612 1.612 0 1 1 0-3.226h20.352c.027-2.659.423-5.23 1.141-7.666H16.746a1.612 1.612 0 1 1 0-3.225h22.662a28.294 28.294 0 0 1 4.926-7.666H16.747a1.612 1.612 0 1 1 0-3.226H47.76a28.079 28.079 0 0 1 17.555-6.143l-.002-.002ZM24.27 16.921h30.183V8.867h-7.92c-.745 0-1.394-.51-1.568-1.236a5.742 5.742 0 0 0-5.602-4.405 5.744 5.744 0 0 0-5.602 4.405 1.614 1.614 0 0 1-1.568 1.236H24.27v8.055h-.001Zm51.226 67.656c-.915.355-1.853.663-2.81.922v6.851c0 .89-.722 1.613-1.613 1.613H7.65c-.89 0-1.612-.721-1.612-1.612v-76.44c0-.891.721-1.613 1.612-1.613h13.395v-2.81H5.953a2.729 2.729 0 0 0-2.726 2.725v79.834a2.729 2.729 0 0 0 2.726 2.726h66.818a2.729 2.729 0 0 0 2.726-2.726l-.001-9.47ZM90.307 58.26a25.03 25.03 0 0 0-2.476-10.855h-.023c-.113 0-.226-.011-.339-.035l-6.166-1.33a1.605 1.605 0 0 1-.891-.536l-.755.755a18.628 18.628 0 0 1 4.368 12c0 10.318-8.394 18.712-18.712 18.712-10.317 0-18.71-8.393-18.71-18.711 0-10.318 8.392-18.712 18.71-18.712 4.595 0 8.807 1.666 12.068 4.423l.748-.749a1.606 1.606 0 0 1-.536-.89l-1.33-6.167a1.585 1.585 0 0 1-.035-.393 25.011 25.011 0 0 0-10.915-2.506c-13.782 0-24.994 11.212-24.994 24.993 0 13.782 11.212 24.994 24.994 24.994 13.78 0 24.993-11.213 24.993-24.994l.001.001Zm4.847-22.095-3.273-.705a1.606 1.606 0 0 1-.89-.537l-8.15 8.15 4.447.958 7.867-7.866Z" fill="#E0E0E0"/></svg>