<svg width="53" height="52" fill="none" xmlns="http://www.w3.org/2000/svg"><g clip-path="url(#a)"><path d="M4.003 38A2.002 2.002 0 1 1 0 37.999 2.002 2.002 0 0 1 4.003 38Zm0 12A2.002 2.002 0 1 1 0 49.999 2.002 2.002 0 0 1 4.003 50Zm24.014-36a2 2 0 1 1-4 0 2 2 0 0 1 4 0Zm0 12a2 2 0 1 1-4 0 2 2 0 0 1 4 0Zm0 12a2 2 0 1 1-4 0 2 2 0 0 1 4 0Zm0 12a2 2 0 1 1-4 0 2 2 0 0 1 4 0ZM16.01 14a2 2 0 1 1-4 0 2 2 0 0 1 4 0Zm0 12a2.001 2.001 0 1 1-4.002-.001A2.001 2.001 0 0 1 16.01 26Zm0 12a2 2 0 1 1-4 0 2 2 0 0 1 4 0Zm0 12a2 2 0 1 1-4 0 2 2 0 0 1 4 0ZM40.025 2a2 2 0 1 1-4 0 2 2 0 0 1 4 0Zm12.007 0a2 2 0 1 1-4-.001 2 2 0 0 1 4 .001ZM40.025 14a2 2 0 1 1-4 0 2 2 0 0 1 4 0Zm12.007 0a2 2 0 1 1-4 0 2 2 0 0 1 4 0ZM40.025 26a2 2 0 1 1-4 0 2 2 0 0 1 4 0Zm12.007 0a2 2 0 1 1-4 0 2 2 0 0 1 4 0ZM40.025 38a2.001 2.001 0 1 1-4.002-.001 2.001 2.001 0 0 1 4.002.001Zm12.007 0a2 2 0 1 1-4 0 2 2 0 0 1 4 0ZM40.025 50a2 2 0 1 1-4 0 2 2 0 0 1 4 0Zm12.007 0a2 2 0 1 1-4 0 2 2 0 0 1 4 0Z" fill="gray" fill-opacity=".3"/></g><defs><clipPath id="a"><path fill="#fff" transform="matrix(1 0 0 -1 0 52)" d="M0 0h53v52H0z"/></clipPath></defs></svg>