<svg width="53" height="52" viewBox="0 0 53 52" fill="none" xmlns="http://www.w3.org/2000/svg">
<g clip-path="url(#clip0_27_62)">
<path d="M4.003 38C4.00287 38.5308 3.79187 39.0398 3.41642 39.4151C3.04097 39.7904 2.53183 40.0011 2.001 40.001C1.47017 40.0008 0.961133 39.7898 0.585872 39.4144C0.210612 39.0389 -0.000132546 38.5298 6.25436e-08 37.999C6.57235e-05 37.7361 0.0519011 37.4759 0.152547 37.2331C0.253192 36.9903 0.400676 36.7697 0.586579 36.5838C0.962027 36.2086 1.47117 35.9978 2.002 35.998C2.26484 35.998 2.52509 36.0499 2.7679 36.1505C3.01071 36.2512 3.23132 36.3987 3.41713 36.5846C3.60294 36.7705 3.75031 36.9911 3.85084 37.234C3.95136 37.4769 4.00307 37.7371 4.003 38V38ZM4.003 50C4.00287 50.5308 3.79187 51.0398 3.41642 51.4151C3.04097 51.7904 2.53183 52.0011 2.001 52.001C1.47017 52.0008 0.961133 51.7898 0.585872 51.4144C0.210612 51.0389 -0.000132546 50.5298 6.25436e-08 49.999C0.000132671 49.4681 0.211132 48.9591 0.586579 48.5838C0.962027 48.2086 1.47117 47.9978 2.002 47.998C2.53283 47.9981 3.04187 48.2091 3.41713 48.5846C3.79239 48.96 4.00313 49.4691 4.003 50ZM28.017 14C28.0169 14.5304 27.806 15.0391 27.4309 15.414C27.0557 15.789 26.5469 15.9996 26.0165 15.9995C25.4861 15.9993 24.9774 15.7885 24.6024 15.4133C24.2275 15.0382 24.0169 14.5294 24.017 13.999C24.0171 13.7363 24.0689 13.4763 24.1694 13.2337C24.27 12.991 24.4174 12.7706 24.6031 12.5849C24.7889 12.3992 25.0094 12.252 25.2521 12.1515C25.4948 12.0511 25.7549 11.9994 26.0175 11.9995C26.2801 11.9995 26.5402 12.0513 26.7828 12.1519C27.0255 12.2525 27.2459 12.3999 27.4316 12.5856C27.6172 12.7714 27.7645 12.9919 27.865 13.2346C27.9654 13.4772 28.0171 13.7373 28.017 14ZM28.017 26C28.0169 26.5304 27.806 27.0391 27.4309 27.414C27.0557 27.789 26.5469 27.9996 26.0165 27.9995C25.4861 27.9993 24.9774 27.7885 24.6024 27.4133C24.2275 27.0382 24.0169 26.5294 24.017 25.999C24.0171 25.4685 24.228 24.9599 24.6031 24.5849C24.9783 24.2099 25.4871 23.9993 26.0175 23.9995C26.5479 23.9996 27.0566 24.2105 27.4316 24.5856C27.8065 24.9608 28.0171 25.4695 28.017 26V26ZM28.017 38C28.0169 38.5304 27.806 39.0391 27.4309 39.414C27.0557 39.789 26.5469 39.9996 26.0165 39.9995C25.4861 39.9993 24.9774 39.7885 24.6024 39.4133C24.2275 39.0382 24.0169 38.5294 24.017 37.999C24.0171 37.4685 24.228 36.9599 24.6031 36.5849C24.7889 36.3992 25.0094 36.252 25.2521 36.1515C25.4948 36.0511 25.7549 35.9994 26.0175 35.9995C26.2801 35.9995 26.5402 36.0513 26.7828 36.1519C27.0255 36.2525 27.2459 36.3999 27.4316 36.5856C27.6172 36.7714 27.7645 36.9919 27.865 37.2346C27.9654 37.4772 28.0171 37.7373 28.017 38ZM28.017 50C28.0169 50.5304 27.806 51.0391 27.4309 51.414C27.0557 51.789 26.5469 51.9996 26.0165 51.9995C25.4861 51.9993 24.9774 51.7885 24.6024 51.4133C24.2275 51.0382 24.0169 50.5294 24.017 49.999C24.0171 49.4685 24.228 48.9599 24.6031 48.5849C24.9783 48.2099 25.4871 47.9993 26.0175 47.9995C26.5479 47.9996 27.0566 48.2104 27.4316 48.5856C27.8065 48.9608 28.0171 49.4695 28.017 50ZM16.01 14C16.0099 14.5305 15.799 15.0393 15.4237 15.4144C15.0485 15.7895 14.5396 16.0001 14.009 16C13.4784 15.9998 12.9697 15.789 12.5946 15.4137C12.2195 15.0384 12.0089 14.5295 12.009 13.999C12.0091 13.4684 12.22 12.9596 12.5953 12.5846C12.7811 12.3988 13.0017 12.2515 13.2444 12.1511C13.4871 12.0506 13.7473 11.9989 14.01 11.999C14.2727 11.999 14.5328 12.0509 14.7755 12.1514C15.0182 12.252 15.2387 12.3995 15.4244 12.5853C15.6101 12.7711 15.7574 12.9916 15.8579 13.2344C15.9584 13.4771 16.0101 13.7373 16.01 14V14ZM16.01 26C16.0099 26.2627 15.9581 26.5228 15.8575 26.7655C15.7569 27.0082 15.6095 27.2287 15.4237 27.4144C15.2379 27.6001 15.0173 27.7474 14.7746 27.8479C14.5319 27.9484 14.2717 28 14.009 28C13.7463 27.9999 13.4862 27.9481 13.2435 27.8475C13.0008 27.7469 12.7803 27.5995 12.5946 27.4137C12.4089 27.2279 12.2616 27.0073 12.1611 26.7646C12.0606 26.5218 12.0089 26.2617 12.009 25.999C12.0091 25.4684 12.22 24.9596 12.5953 24.5846C12.9705 24.2095 13.4794 23.9988 14.01 23.999C14.5406 23.9991 15.0493 24.21 15.4244 24.5853C15.7995 24.9605 16.0101 25.4694 16.01 26V26ZM16.01 38C16.0099 38.5305 15.799 39.0393 15.4237 39.4144C15.0485 39.7895 14.5396 40.0001 14.009 40C13.4784 39.9998 12.9697 39.7889 12.5946 39.4137C12.2195 39.0384 12.0089 38.5295 12.009 37.999C12.0091 37.7363 12.0609 37.4761 12.1615 37.2335C12.2621 36.9908 12.4095 36.7703 12.5953 36.5846C12.7811 36.3988 13.0017 36.2515 13.2444 36.1511C13.4871 36.0506 13.7473 35.9989 14.01 35.999C14.2727 35.999 14.5328 36.0509 14.7755 36.1514C15.0182 36.252 15.2387 36.3995 15.4244 36.5853C15.6101 36.7711 15.7574 36.9916 15.8579 37.2344C15.9584 37.4771 16.0101 37.7373 16.01 38V38ZM16.01 50C16.0099 50.5305 15.799 51.0393 15.4237 51.4144C15.0485 51.7895 14.5396 52.0001 14.009 52C13.4784 51.9998 12.9697 51.789 12.5946 51.4137C12.2195 51.0384 12.0089 50.5295 12.009 49.999C12.0091 49.4684 12.22 48.9596 12.5953 48.5846C12.9705 48.2095 13.4794 47.9988 14.01 47.999C14.5406 47.9991 15.0493 48.21 15.4244 48.5853C15.7995 48.9605 16.0101 49.4694 16.01 50V50ZM40.025 1.99998C40.0249 2.53054 39.814 3.03933 39.4387 3.4144C39.0635 3.78947 38.5546 4.00011 38.024 3.99998C37.4934 3.99984 36.9847 3.78895 36.6096 3.41369C36.2345 3.03843 36.0239 2.52954 36.024 1.99898C36.0241 1.46841 36.235 0.959629 36.6103 0.584557C36.7961 0.398839 37.0167 0.25154 37.2594 0.151066C37.5021 0.050592 37.7623 -0.001088 38.025 -0.00102234C38.2877 -0.000956678 38.5478 0.0508521 38.7905 0.151447C39.0332 0.252042 39.2537 0.399452 39.4394 0.585262C39.6251 0.771072 39.7724 0.991646 39.8729 1.23438C39.9734 1.47712 40.0251 1.73727 40.025 1.99998V1.99998ZM52.032 1.99998C52.0319 2.53041 51.821 3.03906 51.4459 3.41404C51.0707 3.78902 50.5619 3.99961 50.0315 3.99948C49.5011 3.99934 48.9924 3.7885 48.6174 3.41334C48.2425 3.03817 48.0319 2.52941 48.032 1.99898C48.0321 1.73633 48.0839 1.47628 48.1844 1.23365C48.285 0.991024 48.4324 0.770582 48.6181 0.584911C48.8039 0.399241 49.0244 0.251976 49.2671 0.151527C49.5098 0.0510787 49.7699 -0.000588274 50.0325 -0.000522614C50.2951 -0.000456953 50.5552 0.0513388 50.7978 0.151909C51.0405 0.252479 51.2609 0.399853 51.4466 0.585617C51.6322 0.771381 51.7795 0.991897 51.88 1.23457C51.9804 1.47725 52.0321 1.73733 52.032 1.99998ZM40.025 14C40.0249 14.5305 39.814 15.0393 39.4387 15.4144C39.0635 15.7895 38.5546 16.0001 38.024 16C37.4934 15.9998 36.9847 15.789 36.6096 15.4137C36.2345 15.0384 36.0239 14.5295 36.024 13.999C36.0241 13.4684 36.235 12.9596 36.6103 12.5846C36.7961 12.3988 37.0167 12.2515 37.2594 12.1511C37.5021 12.0506 37.7623 11.9989 38.025 11.999C38.2877 11.999 38.5478 12.0509 38.7905 12.1514C39.0332 12.252 39.2537 12.3995 39.4394 12.5853C39.6251 12.7711 39.7724 12.9916 39.8729 13.2344C39.9734 13.4771 40.0251 13.7373 40.025 14V14ZM52.032 14C52.0319 14.5304 51.821 15.0391 51.4459 15.414C51.0707 15.789 50.5619 15.9996 50.0315 15.9995C49.5011 15.9993 48.9924 15.7885 48.6174 15.4133C48.2425 15.0382 48.0319 14.5294 48.032 13.999C48.0321 13.7363 48.0839 13.4763 48.1844 13.2337C48.285 12.991 48.4324 12.7706 48.6181 12.5849C48.8039 12.3992 49.0244 12.252 49.2671 12.1515C49.5098 12.0511 49.7699 11.9994 50.0325 11.9995C50.2951 11.9995 50.5552 12.0513 50.7978 12.1519C51.0405 12.2525 51.2609 12.3999 51.4466 12.5856C51.6322 12.7714 51.7795 12.9919 51.88 13.2346C51.9804 13.4772 52.0321 13.7373 52.032 14ZM40.025 26C40.0249 26.5305 39.814 27.0393 39.4387 27.4144C39.0635 27.7895 38.5546 28.0001 38.024 28C37.4934 27.9998 36.9847 27.789 36.6096 27.4137C36.2345 27.0384 36.0239 26.5295 36.024 25.999C36.0241 25.7363 36.0759 25.4761 36.1765 25.2335C36.2771 24.9908 36.4245 24.7703 36.6103 24.5846C36.7961 24.3988 37.0167 24.2515 37.2594 24.1511C37.5021 24.0506 37.7623 23.9989 38.025 23.999C38.2877 23.999 38.5478 24.0509 38.7905 24.1514C39.0332 24.252 39.2537 24.3995 39.4394 24.5853C39.6251 24.7711 39.7724 24.9916 39.8729 25.2344C39.9734 25.4771 40.0251 25.7373 40.025 26V26ZM52.032 26C52.0319 26.5304 51.821 27.0391 51.4459 27.414C51.0707 27.789 50.5619 27.9996 50.0315 27.9995C49.5011 27.9993 48.9924 27.7885 48.6174 27.4133C48.2425 27.0382 48.0319 26.5294 48.032 25.999C48.0321 25.4685 48.243 24.9599 48.6181 24.5849C48.9933 24.2099 49.5021 23.9993 50.0325 23.9995C50.5629 23.9996 51.0716 24.2105 51.4466 24.5856C51.8215 24.9608 52.0321 25.4695 52.032 26V26ZM40.025 38C40.0249 38.2627 39.9731 38.5228 39.8725 38.7655C39.7719 39.0082 39.6245 39.2287 39.4387 39.4144C39.2529 39.6001 39.0323 39.7474 38.7896 39.8479C38.5469 39.9484 38.2867 40 38.024 40C37.7613 39.9999 37.5012 39.9481 37.2585 39.8475C37.0158 39.7469 36.7953 39.5995 36.6096 39.4137C36.2345 39.0384 36.0239 38.5295 36.024 37.999C36.0241 37.4684 36.235 36.9596 36.6103 36.5846C36.9855 36.2095 37.4944 35.9988 38.025 35.999C38.5556 35.9991 39.0643 36.21 39.4394 36.5853C39.8145 36.9605 40.0251 37.4694 40.025 38V38ZM52.032 38C52.0319 38.5304 51.821 39.0391 51.4459 39.414C51.0707 39.789 50.5619 39.9996 50.0315 39.9995C49.5011 39.9993 48.9924 39.7885 48.6174 39.4133C48.2425 39.0382 48.0319 38.5294 48.032 37.999C48.0321 37.4685 48.243 36.9599 48.6181 36.5849C48.8039 36.3992 49.0244 36.252 49.2671 36.1515C49.5098 36.0511 49.7699 35.9994 50.0325 35.9995C50.2951 35.9995 50.5552 36.0513 50.7978 36.1519C51.0405 36.2525 51.2609 36.3999 51.4466 36.5856C51.6322 36.7714 51.7795 36.9919 51.88 37.2346C51.9804 37.4772 52.0321 37.7373 52.032 38ZM40.025 50C40.0249 50.5305 39.814 51.0393 39.4387 51.4144C39.0635 51.7895 38.5546 52.0001 38.024 52C37.4934 51.9998 36.9847 51.789 36.6096 51.4137C36.2345 51.0384 36.0239 50.5295 36.024 49.999C36.0241 49.4684 36.235 48.9596 36.6103 48.5846C36.9855 48.2095 37.4944 47.9988 38.025 47.999C38.5556 47.9991 39.0643 48.21 39.4394 48.5853C39.8145 48.9605 40.0251 49.4694 40.025 50V50ZM52.032 50C52.0319 50.5304 51.821 51.0391 51.4459 51.414C51.0707 51.789 50.5619 51.9996 50.0315 51.9995C49.5011 51.9993 48.9924 51.7885 48.6174 51.4133C48.2425 51.0382 48.0319 50.5294 48.032 49.999C48.0321 49.4685 48.243 48.9599 48.6181 48.5849C48.9933 48.2099 49.5021 47.9993 50.0325 47.9995C50.5629 47.9996 51.0716 48.2104 51.4466 48.5856C51.8215 48.9608 52.0321 49.4695 52.032 50Z" fill="#808080" fill-opacity="0.3"/>
</g>
<defs>
<clipPath id="clip0_27_62">
<rect width="53" height="52" fill="white" transform="matrix(1 0 0 -1 0 52)"/>
</clipPath>
</defs>
</svg>
