<svg width="40" height="40" fill="none" xmlns="http://www.w3.org/2000/svg"><g clip-path="url(#a)"><rect width="40" height="40" rx="10" fill="#000"/><path fill-rule="evenodd" clip-rule="evenodd" d="M10.945 23.457a10.306 10.306 0 0 1-.717-3.79c0-5.707 4.626-10.334 10.333-10.334s10.333 4.627 10.333 10.334S26.268 30 20.561 30a10.287 10.287 0 0 1-5.81-1.787L10.728 29.5l1.471-3.76-.017-.025a10.255 10.255 0 0 1-1.237-2.258Zm-.985 2.517a12.276 12.276 0 0 1-1.732-6.307c0-6.812 5.522-12.334 12.333-12.334 6.812 0 12.333 5.522 12.333 12.334C32.894 26.478 27.373 32 20.561 32c-2.211 0-4.286-.582-6.08-1.6l-7.148 2.286 2.627-6.712Z" fill="#fff"/><path d="M14.394 17c1.6 5.867 6.778 8 9.167 8.333.5.111 1.7.067 2.5-1 .8-1.066.222-1.777-.167-2l-.833-.5c-1.2-.8-1.611-.666-1.667-.5-.222.334-.733 1.067-1 1.334-.266.266-.777.11-1 0-1.6-1.067-3.11-2.667-3.666-3.334-.534-.533-.556-.777-.5-.833l.833-.5c.4-.267.389-.778.333-1-.533-2.4-1.444-2.889-1.833-2.833-2 0-2.278 1.889-2.167 2.833Z" fill="#fff"/></g><defs><clipPath id="a"><path fill="#fff" d="M0 0h40v40H0z"/></clipPath></defs></svg>